<svg xmlns="http://www.w3.org/2000/svg" viewBox="0 0 680 170" role="img" aria-label="Silvanza Resort by Nivanta">
<defs>
  <linearGradient id="g2a" x1="20%" y1="100%" x2="95%" y2="5%">
    <stop offset="0%" stop-color="#F0CE7A"/>
    <stop offset="55%" stop-color="#CFA035"/>
    <stop offset="100%" stop-color="#8C661A"/>
  </linearGradient>
  <linearGradient id="g2b" x1="20%" y1="100%" x2="95%" y2="5%">
    <stop offset="0%" stop-color="#FBE08A"/>
    <stop offset="50%" stop-color="#E4B43A"/>
    <stop offset="100%" stop-color="#A07820"/>
  </linearGradient>
</defs>
<!-- Feather mark -->
<g transform="translate(40,0)">
  <path d="M 52 148 Q 18 70, 202 20 Q 95 122, 56 148 Z" fill="url(#g2a)" opacity="0.55"/>
  <path d="M 56 147 Q 30 80, 192 28 Q 108 124, 60 147 Z" fill="url(#g2a)" opacity="0.88"/>
  <path d="M 60 146 Q 42 95, 200 38 Q 118 124, 64 146 Z" fill="url(#g2b)" opacity="0.97"/>
  <path d="M 64 145 Q 58 110, 162 56 Q 110 120, 68 145 Z" fill="url(#g2b)"/>
</g>
<!-- Text -->
<text x="450" y="58" text-anchor="middle" font-family="'Cormorant Garamond','Playfair Display',Georgia,serif" font-size="38" font-weight="500" fill="#D4A53C" letter-spacing="5">SILVANZA</text>
<text x="450" y="98" text-anchor="middle" font-family="'Cormorant Garamond','Playfair Display',Georgia,serif" font-size="36" font-weight="400" fill="#D4A53C" letter-spacing="15">RESORT</text>
<text x="450" y="122" text-anchor="middle" font-family="'Cormorant Garamond',Georgia,serif" font-size="14" font-style="italic" fill="#D4A53C">by</text>
<g transform="translate(381,145)">
  <circle cx="11" cy="0" r="11" fill="none" stroke="#D4A53C" stroke-width="1.2"/>
  <path d="M 6 -3 L 8 -6 L 11 -3 L 13 -7 L 16 -3 L 16 -1 L 6 -1 Z" fill="#D4A53C"/>
  <path d="M 5 4 Q 8 1, 11 4 Q 14 1, 17 4 L 17 6 L 5 6 Z" fill="#D4A53C"/>
  <text x="30" y="5" font-family="'Optima','EB Garamond',serif" font-size="22" font-weight="500" fill="#D4A53C" letter-spacing="3">NIVANTA</text>
</g>
</svg>